<mxfile host="app.diagrams.net" agent="Mozilla/5.0 (Windows NT 10.0; Win64; x64) AppleWebKit/537.36 (KHTML, like Gecko) Chrome/128.0.0.0 Safari/537.36" version="24.7.14">
  <diagram name="Page-1" id="h_LkcGsNz-ThtmGKtbZ9">
    <mxGraphModel dx="2072" dy="1786" grid="1" gridSize="10" guides="1" tooltips="1" connect="1" arrows="1" fold="1" page="1" pageScale="1" pageWidth="850" pageHeight="1100" math="0" shadow="0">
      <root>
        <mxCell id="0" />
        <mxCell id="1" parent="0" />
        <mxCell id="2kwRE9HBUQ9HcN6WiooD-1" value="" style="rounded=0;whiteSpace=wrap;html=1;" vertex="1" parent="1">
          <mxGeometry x="-370" y="-60" width="1750" height="1230" as="geometry" />
        </mxCell>
        <mxCell id="2kwRE9HBUQ9HcN6WiooD-2" value="" style="rounded=0;whiteSpace=wrap;html=1;" vertex="1" parent="1">
          <mxGeometry x="-320" y="40" width="1670" height="1100" as="geometry" />
        </mxCell>
        <mxCell id="2kwRE9HBUQ9HcN6WiooD-3" value="" style="outlineConnect=0;dashed=0;verticalLabelPosition=bottom;verticalAlign=top;align=center;html=1;shape=mxgraph.aws3.virtual_private_cloud;fillColor=#F58534;gradientColor=none;" vertex="1" parent="1">
          <mxGeometry x="-320" y="40" width="79.5" height="54" as="geometry" />
        </mxCell>
        <mxCell id="2kwRE9HBUQ9HcN6WiooD-6" value="Name: Prod VPC&lt;br&gt;CIDR:&amp;nbsp;&lt;span style=&quot;text-wrap: nowrap; color: rgb(22, 25, 31); font-family: &amp;quot;Amazon Ember&amp;quot;, &amp;quot;Helvetica Neue&amp;quot;, Roboto, Arial, sans-serif; font-size: 14px; text-align: start; background-color: rgb(241, 250, 255);&quot;&gt;172.31.0.0/16&lt;/span&gt;&amp;nbsp;" style="text;html=1;align=center;verticalAlign=middle;whiteSpace=wrap;rounded=0;" vertex="1" parent="1">
          <mxGeometry x="-320" y="94" width="130.5" height="42" as="geometry" />
        </mxCell>
        <mxCell id="2kwRE9HBUQ9HcN6WiooD-8" value="" style="outlineConnect=0;dashed=0;verticalLabelPosition=bottom;verticalAlign=top;align=center;html=1;shape=mxgraph.aws3.application_load_balancer;fillColor=#F58534;gradientColor=none;" vertex="1" parent="1">
          <mxGeometry x="280.5" y="73" width="89" height="84" as="geometry" />
        </mxCell>
        <mxCell id="2kwRE9HBUQ9HcN6WiooD-9" value="Public subnet" style="points=[[0,0],[0.25,0],[0.5,0],[0.75,0],[1,0],[1,0.25],[1,0.5],[1,0.75],[1,1],[0.75,1],[0.5,1],[0.25,1],[0,1],[0,0.75],[0,0.5],[0,0.25]];outlineConnect=0;gradientColor=none;html=1;whiteSpace=wrap;fontSize=12;fontStyle=0;container=1;pointerEvents=0;collapsible=0;recursiveResize=0;shape=mxgraph.aws4.group;grIcon=mxgraph.aws4.group_security_group;grStroke=0;strokeColor=#7AA116;fillColor=#F2F6E8;verticalAlign=top;align=left;spacingLeft=30;fontColor=#248814;dashed=0;" vertex="1" parent="1">
          <mxGeometry x="-270" y="230" width="1570" height="880" as="geometry" />
        </mxCell>
        <mxCell id="2kwRE9HBUQ9HcN6WiooD-12" value="172.31.0.0/20" style="text;html=1;align=center;verticalAlign=middle;whiteSpace=wrap;rounded=0;" vertex="1" parent="2kwRE9HBUQ9HcN6WiooD-9">
          <mxGeometry x="20" y="20" width="90" height="30" as="geometry" />
        </mxCell>
        <mxCell id="2kwRE9HBUQ9HcN6WiooD-13" value="EC2 instance contents" style="points=[[0,0],[0.25,0],[0.5,0],[0.75,0],[1,0],[1,0.25],[1,0.5],[1,0.75],[1,1],[0.75,1],[0.5,1],[0.25,1],[0,1],[0,0.75],[0,0.5],[0,0.25]];outlineConnect=0;gradientColor=none;html=1;whiteSpace=wrap;fontSize=12;fontStyle=0;container=1;pointerEvents=0;collapsible=0;recursiveResize=0;shape=mxgraph.aws4.group;grIcon=mxgraph.aws4.group_ec2_instance_contents;strokeColor=#D86613;fillColor=none;verticalAlign=top;align=left;spacingLeft=30;fontColor=#D86613;dashed=0;" vertex="1" parent="2kwRE9HBUQ9HcN6WiooD-9">
          <mxGeometry x="30" y="50" width="1510" height="790" as="geometry" />
        </mxCell>
        <mxCell id="2kwRE9HBUQ9HcN6WiooD-18" value="&lt;div&gt;zaperon-user&lt;/div&gt;&lt;div&gt;&amp;nbsp; port: 443&lt;/div&gt;" style="sketch=0;outlineConnect=0;fontColor=#232F3E;gradientColor=none;strokeColor=#232F3E;fillColor=#ffffff;dashed=0;verticalLabelPosition=bottom;verticalAlign=top;align=center;html=1;fontSize=12;fontStyle=0;aspect=fixed;shape=mxgraph.aws4.resourceIcon;resIcon=mxgraph.aws4.container_1;" vertex="1" parent="2kwRE9HBUQ9HcN6WiooD-13">
          <mxGeometry x="503" y="20" width="110" height="110" as="geometry" />
        </mxCell>
        <mxCell id="2kwRE9HBUQ9HcN6WiooD-29" value="&lt;div&gt;zaperon-scim-server&lt;/div&gt;&lt;div&gt;&amp;nbsp; port: 9096&lt;/div&gt;" style="sketch=0;outlineConnect=0;fontColor=#232F3E;gradientColor=none;strokeColor=#232F3E;fillColor=#ffffff;dashed=0;verticalLabelPosition=bottom;verticalAlign=top;align=center;html=1;fontSize=12;fontStyle=0;aspect=fixed;shape=mxgraph.aws4.resourceIcon;resIcon=mxgraph.aws4.container_1;" vertex="1" parent="2kwRE9HBUQ9HcN6WiooD-13">
          <mxGeometry x="870" y="270" width="110" height="110" as="geometry" />
        </mxCell>
        <mxCell id="2kwRE9HBUQ9HcN6WiooD-69" style="edgeStyle=orthogonalEdgeStyle;rounded=0;orthogonalLoop=1;jettySize=auto;html=1;" edge="1" parent="2kwRE9HBUQ9HcN6WiooD-13" source="2kwRE9HBUQ9HcN6WiooD-30" target="2kwRE9HBUQ9HcN6WiooD-29">
          <mxGeometry relative="1" as="geometry" />
        </mxCell>
        <mxCell id="2kwRE9HBUQ9HcN6WiooD-30" value="&lt;div&gt;zaperon-user-backend&lt;/div&gt;&lt;div&gt;port:8443&lt;/div&gt;" style="sketch=0;outlineConnect=0;fontColor=#232F3E;gradientColor=none;strokeColor=#232F3E;fillColor=#ffffff;dashed=0;verticalLabelPosition=bottom;verticalAlign=top;align=center;html=1;fontSize=12;fontStyle=0;aspect=fixed;shape=mxgraph.aws4.resourceIcon;resIcon=mxgraph.aws4.container_1;" vertex="1" parent="2kwRE9HBUQ9HcN6WiooD-13">
          <mxGeometry x="620" y="270" width="110" height="110" as="geometry" />
        </mxCell>
        <mxCell id="2kwRE9HBUQ9HcN6WiooD-31" value="&lt;div&gt;zaperon-client-backend&lt;/div&gt;&lt;div&gt;&amp;nbsp; &amp;nbsp;port:8445&lt;/div&gt;" style="sketch=0;outlineConnect=0;fontColor=#232F3E;gradientColor=none;strokeColor=#232F3E;fillColor=#ffffff;dashed=0;verticalLabelPosition=bottom;verticalAlign=top;align=center;html=1;fontSize=12;fontStyle=0;aspect=fixed;shape=mxgraph.aws4.resourceIcon;resIcon=mxgraph.aws4.container_1;" vertex="1" parent="2kwRE9HBUQ9HcN6WiooD-13">
          <mxGeometry x="1110" y="270" width="110" height="110" as="geometry" />
        </mxCell>
        <mxCell id="2kwRE9HBUQ9HcN6WiooD-32" value="zaperon-notification-backend&lt;br&gt;port: 8451" style="sketch=0;outlineConnect=0;fontColor=#232F3E;gradientColor=none;strokeColor=#232F3E;fillColor=#ffffff;dashed=0;verticalLabelPosition=bottom;verticalAlign=top;align=center;html=1;fontSize=12;fontStyle=0;aspect=fixed;shape=mxgraph.aws4.resourceIcon;resIcon=mxgraph.aws4.container_1;" vertex="1" parent="2kwRE9HBUQ9HcN6WiooD-13">
          <mxGeometry x="1360" y="270" width="110" height="110" as="geometry" />
        </mxCell>
        <mxCell id="2kwRE9HBUQ9HcN6WiooD-71" style="edgeStyle=orthogonalEdgeStyle;rounded=0;orthogonalLoop=1;jettySize=auto;html=1;" edge="1" parent="2kwRE9HBUQ9HcN6WiooD-13" source="2kwRE9HBUQ9HcN6WiooD-33" target="2kwRE9HBUQ9HcN6WiooD-30">
          <mxGeometry relative="1" as="geometry" />
        </mxCell>
        <mxCell id="2kwRE9HBUQ9HcN6WiooD-33" value="&lt;div&gt;zaperon-user-oauth&lt;/div&gt;&lt;div&gt;port:8449&lt;/div&gt;" style="sketch=0;outlineConnect=0;fontColor=#232F3E;gradientColor=none;strokeColor=#232F3E;fillColor=#ffffff;dashed=0;verticalLabelPosition=bottom;verticalAlign=top;align=center;html=1;fontSize=12;fontStyle=0;aspect=fixed;shape=mxgraph.aws4.resourceIcon;resIcon=mxgraph.aws4.container_1;" vertex="1" parent="2kwRE9HBUQ9HcN6WiooD-13">
          <mxGeometry x="340" y="270" width="110" height="110" as="geometry" />
        </mxCell>
        <mxCell id="2kwRE9HBUQ9HcN6WiooD-34" value="&lt;div&gt;zaperon-user-mutualauth&lt;/div&gt;&lt;div&gt;port:8447&lt;/div&gt;" style="sketch=0;outlineConnect=0;fontColor=#232F3E;gradientColor=none;strokeColor=#232F3E;fillColor=#ffffff;dashed=0;verticalLabelPosition=bottom;verticalAlign=top;align=center;html=1;fontSize=12;fontStyle=0;aspect=fixed;shape=mxgraph.aws4.resourceIcon;resIcon=mxgraph.aws4.container_1;" vertex="1" parent="2kwRE9HBUQ9HcN6WiooD-13">
          <mxGeometry x="80" y="280" width="110" height="110" as="geometry" />
        </mxCell>
        <mxCell id="2kwRE9HBUQ9HcN6WiooD-40" value="" style="rounded=0;whiteSpace=wrap;html=1;" vertex="1" parent="2kwRE9HBUQ9HcN6WiooD-13">
          <mxGeometry x="358" y="590" width="400" height="140" as="geometry" />
        </mxCell>
        <mxCell id="2kwRE9HBUQ9HcN6WiooD-41" value="" style="dashed=0;outlineConnect=0;html=1;align=center;labelPosition=center;verticalLabelPosition=bottom;verticalAlign=top;shape=mxgraph.webicons.mongodb;gradientColor=#DFDEDE" vertex="1" parent="2kwRE9HBUQ9HcN6WiooD-13">
          <mxGeometry x="367.6" y="608.8000000000001" width="102.4" height="102.4" as="geometry" />
        </mxCell>
        <mxCell id="2kwRE9HBUQ9HcN6WiooD-42" value="" style="dashed=0;outlineConnect=0;html=1;align=center;labelPosition=center;verticalLabelPosition=bottom;verticalAlign=top;shape=mxgraph.webicons.mongodb;gradientColor=#DFDEDE" vertex="1" parent="2kwRE9HBUQ9HcN6WiooD-13">
          <mxGeometry x="506.8" y="608.8000000000001" width="102.4" height="102.4" as="geometry" />
        </mxCell>
        <mxCell id="2kwRE9HBUQ9HcN6WiooD-43" value="" style="dashed=0;outlineConnect=0;html=1;align=center;labelPosition=center;verticalLabelPosition=bottom;verticalAlign=top;shape=mxgraph.webicons.mongodb;gradientColor=#DFDEDE" vertex="1" parent="2kwRE9HBUQ9HcN6WiooD-13">
          <mxGeometry x="650" y="608.8000000000001" width="102.4" height="102.4" as="geometry" />
        </mxCell>
        <mxCell id="2kwRE9HBUQ9HcN6WiooD-45" value="Mongo 3 Container Cluster" style="text;html=1;align=center;verticalAlign=middle;whiteSpace=wrap;rounded=0;" vertex="1" parent="2kwRE9HBUQ9HcN6WiooD-13">
          <mxGeometry x="470" y="730" width="160" height="30" as="geometry" />
        </mxCell>
        <mxCell id="2kwRE9HBUQ9HcN6WiooD-46" value="" style="outlineConnect=0;dashed=0;verticalLabelPosition=bottom;verticalAlign=top;align=center;html=1;shape=mxgraph.aws3.elasticsearch_service;fillColor=#F58534;gradientColor=none;" vertex="1" parent="2kwRE9HBUQ9HcN6WiooD-13">
          <mxGeometry x="180" y="608.8" width="97.5" height="88" as="geometry" />
        </mxCell>
        <mxCell id="2kwRE9HBUQ9HcN6WiooD-47" value="Elasticsearch&amp;nbsp;" style="text;html=1;align=center;verticalAlign=middle;whiteSpace=wrap;rounded=0;" vertex="1" parent="2kwRE9HBUQ9HcN6WiooD-13">
          <mxGeometry x="163.75" y="711" width="130" height="30" as="geometry" />
        </mxCell>
        <mxCell id="2kwRE9HBUQ9HcN6WiooD-49" value="" style="outlineConnect=0;dashed=0;verticalLabelPosition=bottom;verticalAlign=top;align=center;html=1;shape=mxgraph.aws3.mysql_db_instance;fillColor=#2E73B8;gradientColor=none;" vertex="1" parent="2kwRE9HBUQ9HcN6WiooD-13">
          <mxGeometry x="900" y="640" width="97.5" height="90" as="geometry" />
        </mxCell>
        <mxCell id="2kwRE9HBUQ9HcN6WiooD-50" value="Kafka three container cluster" style="text;html=1;align=center;verticalAlign=middle;whiteSpace=wrap;rounded=0;" vertex="1" parent="2kwRE9HBUQ9HcN6WiooD-13">
          <mxGeometry x="1120" y="743.6" width="120" height="30" as="geometry" />
        </mxCell>
        <mxCell id="2kwRE9HBUQ9HcN6WiooD-51" value="" style="sketch=0;outlineConnect=0;fontColor=#232F3E;gradientColor=none;fillColor=#ED7100;strokeColor=none;dashed=0;verticalLabelPosition=bottom;verticalAlign=top;align=center;html=1;fontSize=12;fontStyle=0;aspect=fixed;pointerEvents=1;shape=mxgraph.aws4.container_1;" vertex="1" parent="2kwRE9HBUQ9HcN6WiooD-13">
          <mxGeometry x="1390" y="640" width="92.9" height="60" as="geometry" />
        </mxCell>
        <mxCell id="2kwRE9HBUQ9HcN6WiooD-52" value="Zookeper" style="text;html=1;align=center;verticalAlign=middle;whiteSpace=wrap;rounded=0;" vertex="1" parent="2kwRE9HBUQ9HcN6WiooD-13">
          <mxGeometry x="1406" y="711" width="60" height="30" as="geometry" />
        </mxCell>
        <mxCell id="2kwRE9HBUQ9HcN6WiooD-67" value="&lt;span style=&quot;font-family: &amp;quot;Times New Roman&amp;quot;; font-size: 14px; text-align: start; white-space: pre;&quot;&gt;65.0.173.67&lt;/span&gt;" style="text;html=1;align=center;verticalAlign=middle;whiteSpace=wrap;rounded=0;" vertex="1" parent="2kwRE9HBUQ9HcN6WiooD-13">
          <mxGeometry x="20" y="20" width="120" height="30" as="geometry" />
        </mxCell>
        <mxCell id="2kwRE9HBUQ9HcN6WiooD-73" value="" style="endArrow=classic;startArrow=classic;html=1;rounded=0;" edge="1" parent="2kwRE9HBUQ9HcN6WiooD-13" target="2kwRE9HBUQ9HcN6WiooD-30">
          <mxGeometry width="50" height="50" relative="1" as="geometry">
            <mxPoint x="130" y="280" as="sourcePoint" />
            <mxPoint x="180" y="230" as="targetPoint" />
            <Array as="points">
              <mxPoint x="130" y="200" />
              <mxPoint x="680" y="200" />
            </Array>
          </mxGeometry>
        </mxCell>
        <mxCell id="2kwRE9HBUQ9HcN6WiooD-81" value="" style="endArrow=classic;html=1;rounded=0;" edge="1" parent="2kwRE9HBUQ9HcN6WiooD-13">
          <mxGeometry width="50" height="50" relative="1" as="geometry">
            <mxPoint x="1240" y="620" as="sourcePoint" />
            <mxPoint x="1390" y="420" as="targetPoint" />
          </mxGeometry>
        </mxCell>
        <mxCell id="2kwRE9HBUQ9HcN6WiooD-86" value="" style="endArrow=classic;html=1;rounded=0;" edge="1" parent="2kwRE9HBUQ9HcN6WiooD-13">
          <mxGeometry width="50" height="50" relative="1" as="geometry">
            <mxPoint x="120" y="430" as="sourcePoint" />
            <mxPoint x="120" y="490" as="targetPoint" />
          </mxGeometry>
        </mxCell>
        <mxCell id="2kwRE9HBUQ9HcN6WiooD-88" value="" style="endArrow=classic;html=1;rounded=0;" edge="1" parent="2kwRE9HBUQ9HcN6WiooD-13">
          <mxGeometry width="50" height="50" relative="1" as="geometry">
            <mxPoint x="920" y="420" as="sourcePoint" />
            <mxPoint x="920" y="490" as="targetPoint" />
          </mxGeometry>
        </mxCell>
        <mxCell id="2kwRE9HBUQ9HcN6WiooD-90" value="" style="endArrow=classic;html=1;rounded=0;" edge="1" parent="2kwRE9HBUQ9HcN6WiooD-13">
          <mxGeometry width="50" height="50" relative="1" as="geometry">
            <mxPoint x="390" y="420" as="sourcePoint" />
            <mxPoint x="390" y="490" as="targetPoint" />
          </mxGeometry>
        </mxCell>
        <mxCell id="2kwRE9HBUQ9HcN6WiooD-91" value="" style="endArrow=classic;html=1;rounded=0;" edge="1" parent="2kwRE9HBUQ9HcN6WiooD-13">
          <mxGeometry width="50" height="50" relative="1" as="geometry">
            <mxPoint x="670" y="420" as="sourcePoint" />
            <mxPoint x="670" y="490" as="targetPoint" />
          </mxGeometry>
        </mxCell>
        <mxCell id="2kwRE9HBUQ9HcN6WiooD-92" value="" style="endArrow=classic;html=1;rounded=0;entryX=0.425;entryY=0.006;entryDx=0;entryDy=0;entryPerimeter=0;" edge="1" parent="2kwRE9HBUQ9HcN6WiooD-13" target="2kwRE9HBUQ9HcN6WiooD-40">
          <mxGeometry width="50" height="50" relative="1" as="geometry">
            <mxPoint x="530" y="490" as="sourcePoint" />
            <mxPoint x="580" y="440" as="targetPoint" />
          </mxGeometry>
        </mxCell>
        <mxCell id="2kwRE9HBUQ9HcN6WiooD-93" value="" style="endArrow=classic;html=1;rounded=0;entryX=0.05;entryY=0.05;entryDx=0;entryDy=0;entryPerimeter=0;fillColor=#dae8fc;strokeColor=#6c8ebf;dashed=1;strokeWidth=2;" edge="1" parent="2kwRE9HBUQ9HcN6WiooD-13" target="2kwRE9HBUQ9HcN6WiooD-49">
          <mxGeometry width="50" height="50" relative="1" as="geometry">
            <mxPoint x="690" y="420" as="sourcePoint" />
            <mxPoint x="740" y="370" as="targetPoint" />
            <Array as="points">
              <mxPoint x="800" y="540" />
            </Array>
          </mxGeometry>
        </mxCell>
        <mxCell id="2kwRE9HBUQ9HcN6WiooD-95" value="" style="endArrow=classic;html=1;rounded=0;" edge="1" parent="2kwRE9HBUQ9HcN6WiooD-13">
          <mxGeometry width="50" height="50" relative="1" as="geometry">
            <mxPoint x="1150" y="420" as="sourcePoint" />
            <mxPoint x="1150" y="490" as="targetPoint" />
          </mxGeometry>
        </mxCell>
        <mxCell id="2kwRE9HBUQ9HcN6WiooD-96" value="" style="endArrow=none;html=1;rounded=0;dashed=1;fillColor=#ffe6cc;strokeColor=#d79b00;strokeWidth=2;" edge="1" parent="2kwRE9HBUQ9HcN6WiooD-13">
          <mxGeometry width="50" height="50" relative="1" as="geometry">
            <mxPoint x="135" y="550" as="sourcePoint" />
            <mxPoint x="1180" y="550" as="targetPoint" />
            <Array as="points">
              <mxPoint x="135" y="550" />
              <mxPoint x="1180" y="550" />
            </Array>
          </mxGeometry>
        </mxCell>
        <mxCell id="2kwRE9HBUQ9HcN6WiooD-102" value="" style="endArrow=classic;html=1;rounded=0;dashed=1;dashPattern=8 8;" edge="1" parent="2kwRE9HBUQ9HcN6WiooD-13" target="2kwRE9HBUQ9HcN6WiooD-46">
          <mxGeometry width="50" height="50" relative="1" as="geometry">
            <mxPoint x="230" y="550" as="sourcePoint" />
            <mxPoint x="300" y="500" as="targetPoint" />
          </mxGeometry>
        </mxCell>
        <mxCell id="2kwRE9HBUQ9HcN6WiooD-103" value="" style="endArrow=classic;html=1;rounded=0;dashed=1;fillColor=#ffe6cc;strokeColor=#d79b00;strokeWidth=2;" edge="1" parent="2kwRE9HBUQ9HcN6WiooD-13">
          <mxGeometry width="50" height="50" relative="1" as="geometry">
            <mxPoint x="130" y="430" as="sourcePoint" />
            <mxPoint x="130" y="550" as="targetPoint" />
          </mxGeometry>
        </mxCell>
        <mxCell id="2kwRE9HBUQ9HcN6WiooD-104" value="" style="endArrow=classic;html=1;rounded=0;strokeWidth=2;fillColor=#ffe6cc;strokeColor=#d79b00;dashed=1;" edge="1" parent="2kwRE9HBUQ9HcN6WiooD-13">
          <mxGeometry width="50" height="50" relative="1" as="geometry">
            <mxPoint x="400" y="420" as="sourcePoint" />
            <mxPoint x="400" y="550" as="targetPoint" />
          </mxGeometry>
        </mxCell>
        <mxCell id="2kwRE9HBUQ9HcN6WiooD-105" value="" style="endArrow=classic;html=1;rounded=0;dashed=1;fillColor=#fff2cc;strokeColor=#d6b656;strokeWidth=2;" edge="1" parent="2kwRE9HBUQ9HcN6WiooD-13">
          <mxGeometry width="50" height="50" relative="1" as="geometry">
            <mxPoint x="1180" y="420" as="sourcePoint" />
            <mxPoint x="1180" y="550" as="targetPoint" />
          </mxGeometry>
        </mxCell>
        <mxCell id="2kwRE9HBUQ9HcN6WiooD-106" value="" style="endArrow=classic;html=1;rounded=0;dashed=1;fillColor=#ffe6cc;strokeColor=#d79b00;strokeWidth=2;" edge="1" parent="2kwRE9HBUQ9HcN6WiooD-13">
          <mxGeometry width="50" height="50" relative="1" as="geometry">
            <mxPoint x="650" y="420" as="sourcePoint" />
            <mxPoint x="650" y="550" as="targetPoint" />
          </mxGeometry>
        </mxCell>
        <mxCell id="2kwRE9HBUQ9HcN6WiooD-111" value="" style="endArrow=classic;html=1;rounded=0;" edge="1" parent="2kwRE9HBUQ9HcN6WiooD-13">
          <mxGeometry width="50" height="50" relative="1" as="geometry">
            <mxPoint x="560" y="170" as="sourcePoint" />
            <mxPoint x="560" y="200" as="targetPoint" />
          </mxGeometry>
        </mxCell>
        <mxCell id="2kwRE9HBUQ9HcN6WiooD-112" value="" style="endArrow=classic;html=1;rounded=0;" edge="1" parent="2kwRE9HBUQ9HcN6WiooD-13" target="2kwRE9HBUQ9HcN6WiooD-33">
          <mxGeometry width="50" height="50" relative="1" as="geometry">
            <mxPoint x="395" y="200" as="sourcePoint" />
            <mxPoint x="430" y="150" as="targetPoint" />
          </mxGeometry>
        </mxCell>
        <mxCell id="2kwRE9HBUQ9HcN6WiooD-48" value="" style="sketch=0;points=[[0,0,0],[0.25,0,0],[0.5,0,0],[0.75,0,0],[1,0,0],[0,1,0],[0.25,1,0],[0.5,1,0],[0.75,1,0],[1,1,0],[0,0.25,0],[0,0.5,0],[0,0.75,0],[1,0.25,0],[1,0.5,0],[1,0.75,0]];outlineConnect=0;fontColor=#232F3E;fillColor=#8C4FFF;strokeColor=#ffffff;dashed=0;verticalLabelPosition=bottom;verticalAlign=top;align=center;html=1;fontSize=12;fontStyle=0;aspect=fixed;shape=mxgraph.aws4.resourceIcon;resIcon=mxgraph.aws4.managed_streaming_for_kafka;" vertex="1" parent="1">
          <mxGeometry x="880" y="900" width="120" height="120" as="geometry" />
        </mxCell>
        <mxCell id="2kwRE9HBUQ9HcN6WiooD-53" style="edgeStyle=orthogonalEdgeStyle;rounded=0;orthogonalLoop=1;jettySize=auto;html=1;entryX=1.026;entryY=0.416;entryDx=0;entryDy=0;entryPerimeter=0;" edge="1" parent="1" source="2kwRE9HBUQ9HcN6WiooD-51" target="2kwRE9HBUQ9HcN6WiooD-48">
          <mxGeometry relative="1" as="geometry" />
        </mxCell>
        <mxCell id="2kwRE9HBUQ9HcN6WiooD-54" value="AWS Certificate Manager" style="sketch=0;outlineConnect=0;fontColor=#232F3E;gradientColor=none;strokeColor=#ffffff;fillColor=#232F3E;dashed=0;verticalLabelPosition=middle;verticalAlign=bottom;align=center;html=1;whiteSpace=wrap;fontSize=10;fontStyle=1;spacing=3;shape=mxgraph.aws4.productIcon;prIcon=mxgraph.aws4.certificate_manager_3;" vertex="1" parent="1">
          <mxGeometry x="10" y="60" width="80" height="110" as="geometry" />
        </mxCell>
        <mxCell id="2kwRE9HBUQ9HcN6WiooD-59" value="" style="image;sketch=0;aspect=fixed;html=1;points=[];align=center;fontSize=12;image=img/lib/mscae/Network_Security_Groups_Classic.svg;" vertex="1" parent="1">
          <mxGeometry x="790" y="75" width="54.76" height="74" as="geometry" />
        </mxCell>
        <mxCell id="2kwRE9HBUQ9HcN6WiooD-60" value="security group" style="text;html=1;align=center;verticalAlign=middle;whiteSpace=wrap;rounded=0;" vertex="1" parent="1">
          <mxGeometry x="770" y="149" width="90" height="30" as="geometry" />
        </mxCell>
        <mxCell id="2kwRE9HBUQ9HcN6WiooD-64" value="" style="endArrow=classic;html=1;rounded=0;entryX=1;entryY=0.5;entryDx=0;entryDy=0;entryPerimeter=0;" edge="1" parent="1" target="2kwRE9HBUQ9HcN6WiooD-8">
          <mxGeometry width="50" height="50" relative="1" as="geometry">
            <mxPoint x="790" y="120" as="sourcePoint" />
            <mxPoint x="840" y="70" as="targetPoint" />
          </mxGeometry>
        </mxCell>
        <mxCell id="2kwRE9HBUQ9HcN6WiooD-65" value="" style="endArrow=classic;html=1;rounded=0;" edge="1" parent="1" source="2kwRE9HBUQ9HcN6WiooD-54" target="2kwRE9HBUQ9HcN6WiooD-8">
          <mxGeometry width="50" height="50" relative="1" as="geometry">
            <mxPoint x="310" y="120" as="sourcePoint" />
            <mxPoint x="360" y="70" as="targetPoint" />
          </mxGeometry>
        </mxCell>
        <mxCell id="2kwRE9HBUQ9HcN6WiooD-66" value="" style="endArrow=classic;html=1;rounded=0;exitX=0.5;exitY=1;exitDx=0;exitDy=0;exitPerimeter=0;" edge="1" parent="1" source="2kwRE9HBUQ9HcN6WiooD-8" target="2kwRE9HBUQ9HcN6WiooD-18">
          <mxGeometry width="50" height="50" relative="1" as="geometry">
            <mxPoint x="560" y="170" as="sourcePoint" />
            <mxPoint x="610" y="120" as="targetPoint" />
          </mxGeometry>
        </mxCell>
        <mxCell id="2kwRE9HBUQ9HcN6WiooD-80" style="edgeStyle=orthogonalEdgeStyle;rounded=0;orthogonalLoop=1;jettySize=auto;html=1;entryX=0.379;entryY=0.001;entryDx=0;entryDy=0;entryPerimeter=0;" edge="1" parent="1" target="2kwRE9HBUQ9HcN6WiooD-48">
          <mxGeometry relative="1" as="geometry">
            <mxPoint x="925" y="700" as="sourcePoint" />
          </mxGeometry>
        </mxCell>
        <mxCell id="2kwRE9HBUQ9HcN6WiooD-85" value="" style="endArrow=none;html=1;rounded=0;entryX=0.12;entryY=0.664;entryDx=0;entryDy=0;entryPerimeter=0;exitX=0.737;exitY=0.664;exitDx=0;exitDy=0;exitPerimeter=0;" edge="1" parent="1" source="2kwRE9HBUQ9HcN6WiooD-2" target="2kwRE9HBUQ9HcN6WiooD-2">
          <mxGeometry width="50" height="50" relative="1" as="geometry">
            <mxPoint x="680" y="770" as="sourcePoint" />
            <mxPoint x="320" y="770" as="targetPoint" />
          </mxGeometry>
        </mxCell>
      </root>
    </mxGraphModel>
  </diagram>
</mxfile>
